============================ PITBULL - BON BON ==============================

Format                           : AVI
Format/Info                      : Audio Video Interleave
File size                        : 65.5 MiB
Duration                         : 3mn 45s
Overall bit rate                 : 2 437 Kbps
Writing application              : Lavf51.12.1
Writing library                  : VirtualDub build 32817/release

Video
Format                           : xvid
Codec ID                         : xvid
Duration                         : 3mn 45s
Bit rate                         : 2 295 Kbps
Width                            : 640 pixels
Height                           : 360 pixels
Display aspect ratio             : 16:9
Frame rate                       : 29.970 fps
Bits/(Pixel*Frame)               : 0.332
Stream size                      : 61.7 MiB (94%)

Audio
ID                               : 1
Format                           : MPEG Audio
Format version                   : Version 1
Format profile                   : Layer 3
Mode                             : Joint stereo
Mode extension                   : MS Stereo
Codec ID                         : 55
Codec ID/Hint                    : MP3
Duration                         : 3mn 45s
Bit rate mode                    : Constant
Bit rate                         : 128 Kbps
Channel(s)                       : 2 channels
Sampling rate                    : 44.1 KHz
Stream size                      : 3.44 MiB (5%)
Alignment                        : Aligned on interleaves
Interleave, duration             : 26 ms (0.78 video frame)
Interleave, preload duration     : 522 ms

==============================================================================

                       http://bayimg.com/bAhMdaaDk

========================= HAUNTING.SUMMER ====================================
